<?xml version="1.0" encoding="UTF-8"?>
<svg version="1.1" xmlns="http://www.w3.org/2000/svg" width="480" height="480">
<path d="M0 0 C0.87155731 -0.00979385 1.74311462 -0.01958771 2.64108276 -0.02967834 C21.97812876 -0.20217528 40.67572979 -0.05900998 59.62890625 4.23828125 C60.55251953 4.44195313 61.47613281 4.645625 62.42773438 4.85546875 C90.72904328 11.29933669 117.61718628 23.54377513 140.62890625 41.23828125 C141.54027344 41.93824219 142.45164062 42.63820312 143.390625 43.359375 C148.99991828 47.76606329 154.34949056 52.44344961 159.62890625 57.23828125 C155.83192116 61.77348431 151.91179271 66.09842122 147.71533203 70.26538086 C146.88008751 71.10084442 146.88008751 71.10084442 146.02796936 71.95318604 C144.21241625 73.76805024 142.39336231 75.57936036 140.57421875 77.390625 C139.30462094 78.65835499 138.03524577 79.92630798 136.76608276 81.19447327 C133.44423051 84.51252901 130.11938492 87.82756914 126.79388428 91.14196777 C123.39331116 94.5322648 119.99560888 97.92543631 116.59765625 101.31835938 C109.94419606 107.96113287 103.28756666 114.60072071 96.62890625 121.23828125 C93.17435164 119.59598181 90.64417868 117.63458273 87.75390625 115.11328125 C81.51035744 109.95305018 74.83375009 105.91248714 67.62890625 102.23828125 C67.01950195 101.92616699 66.41009766 101.61405273 65.78222656 101.29248047 C36.7640465 86.76818972 2.64346151 85.45401022 -27.99609375 95.36328125 C-42.0125911 100.14575908 -54.8196848 106.93671067 -66.37109375 116.23828125 C-66.9021875 116.66399414 -67.43328125 117.08970703 -67.98046875 117.52832031 C-95.75759294 139.93796121 -111.80173116 171.36891339 -116.83203125 206.453125 C-117.10821635 209.0544901 -117.27759541 211.6243929 -117.37109375 214.23828125 C-117.41105469 215.13933594 -117.45101562 216.04039062 -117.4921875 216.96875 C-118.24388249 249.73380822 -106.15353311 281.21108883 -85.37109375 306.23828125 C-84.19933594 307.65947266 -84.19933594 307.65947266 -83.00390625 309.109375 C-65.09839173 329.80345326 -39.80662609 343.19938002 -13.37109375 349.23828125 C-12.33339844 349.48449219 -11.29570312 349.73070312 -10.2265625 349.984375 C21.73267671 356.18797565 57.42295505 348.72026019 84.70703125 331.26953125 C101.56530002 319.40281692 114.06090513 304.93963092 122.44140625 286.11328125 C122.71927979 285.49316162 122.99715332 284.87304199 123.28344727 284.23413086 C125.68853852 278.60371492 126.97557606 273.30049196 128.62890625 267.23828125 C70.71390625 266.74328125 70.71390625 266.74328125 11.62890625 266.23828125 C11.62890625 237.85828125 11.62890625 209.47828125 11.62890625 180.23828125 C80.26890625 180.23828125 148.90890625 180.23828125 219.62890625 180.23828125 C223.2554173 204.41502156 223.2554173 204.41502156 223.62890625 216.23828125 C223.65082031 216.90939941 223.67273438 217.58051758 223.6953125 218.27197266 C225.36521586 277.53962607 207.09807675 335.38600086 166.62890625 379.23828125 C166.16129883 379.74584961 165.69369141 380.25341797 165.21191406 380.77636719 C158.02548377 388.48017907 150.10468648 395.02866664 141.62890625 401.23828125 C141.06252441 401.65432617 140.49614258 402.07037109 139.91259766 402.49902344 C114.90181646 420.59864759 86.67887262 431.10086059 56.62890625 437.23828125 C55.79149902 437.41762207 54.9540918 437.59696289 54.09130859 437.78173828 C0.05798588 448.90657083 -60.81820116 436.51898261 -107.0012207 406.8659668 C-112.99039188 402.91619481 -118.75965967 398.70930275 -124.37109375 394.23828125 C-125.35980469 393.45453125 -126.34851563 392.67078125 -127.3671875 391.86328125 C-143.01796745 379.17926324 -156.76158553 364.68541829 -168.37109375 348.23828125 C-168.81888184 347.6138916 -169.26666992 346.98950195 -169.72802734 346.34619141 C-186.52363944 322.79480238 -198.16051973 295.44627607 -204.37109375 267.23828125 C-204.57992187 266.31192871 -204.78875 265.38557617 -205.00390625 264.43115234 C-211.26296943 235.33938319 -211.04579209 202.22266763 -204.37109375 173.23828125 C-204.13503418 172.2107373 -203.89897461 171.18319336 -203.65576172 170.12451172 C-190.05544931 113.17155936 -154.1520208 63.07424011 -104.37109375 32.23828125 C-99.13149126 29.06085163 -93.79204465 26.0939021 -88.37109375 23.23828125 C-87.73574707 22.90086914 -87.10040039 22.56345703 -86.44580078 22.21582031 C-60.23221813 8.51068274 -29.63113571 0.27667394 0 0 Z " fill="#34A853" transform="translate(228.37109375,19.76171875)"/>
<path d="M0 0 C0.87155731 -0.00979385 1.74311462 -0.01958771 2.64108276 -0.02967834 C21.97812876 -0.20217528 40.67572979 -0.05900998 59.62890625 4.23828125 C60.55251953 4.44195313 61.47613281 4.645625 62.42773438 4.85546875 C90.72904328 11.29933669 117.61718628 23.54377513 140.62890625 41.23828125 C141.54027344 41.93824219 142.45164062 42.63820312 143.390625 43.359375 C148.99991828 47.76606329 154.34949056 52.44344961 159.62890625 57.23828125 C155.83192116 61.77348431 151.91179271 66.09842122 147.71533203 70.26538086 C146.88008751 71.10084442 146.88008751 71.10084442 146.02796936 71.95318604 C144.21241625 73.76805024 142.39336231 75.57936036 140.57421875 77.390625 C139.30462094 78.65835499 138.03524577 79.92630798 136.76608276 81.19447327 C133.44423051 84.51252901 130.11938492 87.82756914 126.79388428 91.14196777 C123.39331116 94.5322648 119.99560888 97.92543631 116.59765625 101.31835938 C109.94419606 107.96113287 103.28756666 114.60072071 96.62890625 121.23828125 C93.17435164 119.59598181 90.64417868 117.63458273 87.75390625 115.11328125 C81.51035744 109.95305018 74.83375009 105.91248714 67.62890625 102.23828125 C67.01950195 101.92616699 66.41009766 101.61405273 65.78222656 101.29248047 C36.7640465 86.76818972 2.64346151 85.45401022 -27.99609375 95.36328125 C-42.0125911 100.14575908 -54.8196848 106.93671067 -66.37109375 116.23828125 C-66.9021875 116.66399414 -67.43328125 117.08970703 -67.98046875 117.52832031 C-95.75759294 139.93796121 -111.80173116 171.36891339 -116.83203125 206.453125 C-117.10821635 209.0544901 -117.27759541 211.6243929 -117.37109375 214.23828125 C-117.41105469 215.13933594 -117.45101562 216.04039062 -117.4921875 216.96875 C-117.78141689 229.57574874 -116.08848759 241.96448038 -112.60449219 254.06152344 C-111.63534886 257.52994176 -111.063065 259.85154735 -112.37109375 263.23828125 C-113.93066406 264.81884766 -113.93066406 264.81884766 -115.94921875 266.33984375 C-117.06200195 267.190625 -117.06200195 267.190625 -118.19726562 268.05859375 C-118.99712891 268.65414063 -119.79699219 269.2496875 -120.62109375 269.86328125 C-121.44158203 270.4871875 -122.26207031 271.11109375 -123.10742188 271.75390625 C-124.76317603 273.01222762 -126.42200429 274.26651489 -128.08398438 275.51660156 C-131.03068137 277.73480259 -133.95129391 279.98479471 -136.87109375 282.23828125 C-137.89847656 283.0271875 -138.92585938 283.81609375 -139.984375 284.62890625 C-147.13863205 290.13251113 -154.24952651 295.69250068 -161.37109375 301.23828125 C-164.66242697 303.80120993 -167.95415413 306.36363153 -171.24609375 308.92578125 C-172.00108154 309.51391602 -172.75606934 310.10205078 -173.53393555 310.70800781 C-174.59414917 311.53316895 -174.59414917 311.53316895 -175.67578125 312.375 C-176.29437012 312.85670654 -176.91295898 313.33841309 -177.55029297 313.8347168 C-178.15115723 314.29789307 -178.75202148 314.76106934 -179.37109375 315.23828125 C-180.04543457 315.79233643 -180.71977539 316.3463916 -181.41455078 316.91723633 C-183.37109375 318.23828125 -183.37109375 318.23828125 -186.37109375 318.23828125 C-200.41805615 286.68187875 -208.82687327 255.67229214 -208.74609375 220.92578125 C-208.74521759 220.00241974 -208.74434143 219.07905823 -208.74343872 218.12771606 C-208.69575095 202.84370298 -207.81362944 188.18723919 -204.37109375 173.23828125 C-204.13503418 172.2107373 -203.89897461 171.18319336 -203.65576172 170.12451172 C-190.05544931 113.17155936 -154.1520208 63.07424011 -104.37109375 32.23828125 C-99.13149126 29.06085163 -93.79204465 26.0939021 -88.37109375 23.23828125 C-87.73574707 22.90086914 -87.10040039 22.56345703 -86.44580078 22.21582031 C-60.23221813 8.51068274 -29.63113571 0.27667394 0 0 Z " fill="#EA4334" transform="translate(228.37109375,19.76171875)"/>
<path d="M0 0 C68.64 0 137.28 0 208 0 C211.62651105 24.17674031 211.62651105 24.17674031 212 36 C212.02191406 36.67111816 212.04382813 37.34223633 212.06640625 38.03369141 C213.73383074 97.21336571 195.52870541 155.2620386 155 199 C152.38719427 201.72674764 149.74394672 204.40527093 147 207 C144.2689052 205.71187476 141.91232752 204.29668863 139.5234375 202.453125 C138.862229 201.94531494 138.20102051 201.43750488 137.51977539 200.91430664 C136.81199951 200.36508545 136.10422363 199.81586426 135.375 199.25 C134.25436157 198.38652954 134.25436157 198.38652954 133.11108398 197.50561523 C130.7375126 195.67451789 128.36819777 193.83804054 126 192 C125.25282715 191.42072754 124.5056543 190.84145508 123.73583984 190.24462891 C119.24832172 186.76396995 114.76693514 183.27549564 110.28808594 179.78369141 C101.05915292 172.58922015 91.82892765 165.39615458 82.5625 158.25 C81.04849609 157.08210938 81.04849609 157.08210938 79.50390625 155.890625 C77.71089954 154.53677906 75.86938795 153.24625863 74 152 C74 151.34 74 150.68 74 150 C75.58066374 148.77393383 77.21763517 147.62021335 78.875 146.5 C92.37324074 136.85593043 102.23186579 124.37841898 109.375 109.5 C109.68453613 108.86118896 109.99407227 108.22237793 110.31298828 107.56420898 C113.3885213 100.81526199 114.90230007 94.34194976 117 87 C59.085 86.505 59.085 86.505 0 86 C0 57.62 0 29.24 0 0 Z " fill="#4185F3" transform="translate(240,200)"/>
<path d="M0 0 C5.7354235 3.5629146 10.930397 7.53344804 16.07006836 11.90820312 C20.20044334 15.39587558 24.4697769 18.65690938 28.8125 21.875 C34.73335588 26.26605527 40.52843477 30.77991661 46.26245117 35.41162109 C51.85933797 39.9195476 57.556833 44.28919603 63.27905273 48.63647461 C66.89008296 51.38027021 70.47423414 54.14646187 74 57 C73.72916667 58.35416667 73.45833333 59.70833333 73.1875 61.0625 C72.91679687 62.42761719 72.91679687 62.42761719 72.640625 63.8203125 C72.1836746 66.08834679 71.71346606 68.35372666 71.234375 70.6171875 C66.86364492 91.57098171 66.8201265 112.17603787 72.76660156 132.82324219 C73.73574489 136.29166051 74.30802875 138.6132661 73 142 C71.44042969 143.58056641 71.44042969 143.58056641 69.421875 145.1015625 C68.68001953 145.66875 67.93816406 146.2359375 67.17382812 146.8203125 C65.9740332 147.71363281 65.9740332 147.71363281 64.75 148.625 C63.92951172 149.24890625 63.10902344 149.8728125 62.26367188 150.515625 C60.60791772 151.77394637 58.94908946 153.02823364 57.28710938 154.27832031 C54.34041238 156.49652134 51.41979984 158.74651346 48.5 161 C47.47261719 161.78890625 46.44523437 162.5778125 45.38671875 163.390625 C38.2324617 168.89422988 31.12156724 174.45421943 24 180 C20.70866678 182.56292868 17.41693962 185.12535028 14.125 187.6875 C13.37001221 188.27563477 12.61502441 188.86376953 11.8371582 189.46972656 C10.77694458 190.2948877 10.77694458 190.2948877 9.6953125 191.13671875 C9.07672363 191.61842529 8.45813477 192.10013184 7.82080078 192.59643555 C7.21993652 193.05961182 6.61907227 193.52278809 6 194 C5.32565918 194.55405518 4.65131836 195.10811035 3.95654297 195.67895508 C2 197 2 197 -1 197 C-15.0469624 165.4435975 -23.45577952 134.43401089 -23.375 99.6875 C-23.37412384 98.76413849 -23.37324768 97.84077698 -23.37234497 96.88943481 C-23.3246572 81.60542173 -22.44253569 66.94895794 -19 52 C-18.64591064 50.45868408 -18.64591064 50.45868408 -18.28466797 48.88623047 C-14.3847788 32.55497313 -9.39850179 14.09775268 0 0 Z " fill="#FABB05" transform="translate(43,141)"/>
</svg>
